<svg xmlns="http://www.w3.org/2000/svg" viewBox="280 -20 380 115" >
	<line x1="150.000" x2="120.000" y1="0.000" y2="0.000" fill="none" stroke="#665782" stroke-width="5.000" />
	<line x1="390.000" x2="360.000" y1="0.000" y2="0.000" fill="none" stroke="#665782" stroke-width="5.000" />
	<line stroke="#665782" stroke-width="5.000" x1="570.000" x2="540.000" y1="0.000" y2="0.000" fill="none" />
	<line x1="600.000" x2="615.000" y1="51.962" y2="25.981" fill="none" stroke="#665782" stroke-width="5.000" />
	<line y2="77.942" fill="none" stroke="#665782" stroke-width="5.000" x1="615.000" x2="645.000" y1="77.942" />
	<line y2="51.962" fill="none" stroke="#665782" stroke-width="5.000" x1="660.000" x2="630.000" y1="51.962" />
	<line y1="77.942" y2="51.962" fill="none" stroke="#665782" stroke-width="5.000" x1="675.000" x2="660.000" />
	<line y2="0.000" fill="none" stroke="#665782" stroke-width="5.000" x1="630.000" x2="600.000" y1="0.000" />
	<line x1="645.000" x2="630.000" y1="25.981" y2="0.000" fill="none" stroke="#665782" stroke-width="5.000" />
	<line x1="210.000" x2="180.000" y1="0.000" y2="0.000" fill="none" stroke="#665782" stroke-width="5.000" />
	<line x1="300.000" x2="270.000" y1="0.000" y2="0.000" fill="none" stroke="#665782" stroke-width="5.000" />
	<line x2="390.000" y1="0.000" y2="0.000" fill="none" stroke="#665782" stroke-width="5.000" x1="420.000" />
	<line x2="450.000" y1="0.000" y2="0.000" fill="none" stroke="#665782" stroke-width="5.000" x1="480.000" />
	<line x1="540.000" x2="510.000" y1="0.000" y2="0.000" fill="none" stroke="#665782" stroke-width="5.000" />
	<line x1="600.000" x2="570.000" y1="0.000" y2="0.000" fill="none" stroke="#665782" stroke-width="5.000" />
	<line y1="25.981" y2="25.981" fill="none" stroke="#665782" stroke-width="5.000" x1="615.000" x2="645.000" />
	<line stroke-width="5.000" x1="630.000" x2="600.000" y1="51.962" y2="51.962" fill="none" stroke="#665782" />
	<line x2="675.000" y1="77.942" y2="77.942" fill="none" stroke="#665782" stroke-width="5.000" x1="645.000" />
	<line y1="0.000" y2="0.000" fill="none" stroke="#665782" stroke-width="5.000" x1="30.000" x2="0.000" />
	<line x1="120.000" x2="90.000" y1="0.000" y2="0.000" fill="none" stroke="#665782" stroke-width="5.000" />
	<line x2="210.000" y1="0.000" y2="0.000" fill="none" stroke="#665782" stroke-width="5.000" x1="240.000" />
	<line x2="240.000" y1="0.000" y2="0.000" fill="none" stroke="#665782" stroke-width="5.000" x1="270.000" />
	<line y1="0.000" y2="0.000" fill="none" stroke="#665782" stroke-width="5.000" x1="60.000" x2="30.000" />
	<line y1="0.000" y2="0.000" fill="none" stroke="#665782" stroke-width="5.000" x1="90.000" x2="60.000" />
	<line y2="0.000" fill="none" stroke="#665782" stroke-width="5.000" x1="180.000" x2="150.000" y1="0.000" />
	<line fill="none" stroke="#665782" stroke-width="5.000" x1="330.000" x2="300.000" y1="0.000" y2="0.000" />
	<line fill="none" stroke="#665782" stroke-width="5.000" x1="360.000" x2="330.000" y1="0.000" y2="0.000" />
	<line x1="450.000" x2="420.000" y1="0.000" y2="0.000" fill="none" stroke="#665782" stroke-width="5.000" />
	<line x2="480.000" y1="0.000" y2="0.000" fill="none" stroke="#665782" stroke-width="5.000" x1="510.000" />
	<line y2="77.942" fill="none" stroke="#ed8e9c" stroke-width="5.000" x1="585.000" x2="615.000" y1="77.942" />
	<line x1="585.000" x2="600.000" y1="77.942" y2="51.962" fill="none" stroke="#90d1c2" stroke-width="1.500" />
	<line fill="none" stroke="#ed8e9c" stroke-width="5.000" x1="570.000" x2="585.000" y1="51.962" y2="77.942" />
	<line x1="570.000" x2="600.000" y1="51.962" y2="51.962" fill="none" stroke="#90d1c2" stroke-width="1.500" />
	<line stroke-width="5.000" x1="585.000" x2="570.000" y1="25.981" y2="51.962" fill="none" stroke="#ed8e9c" />
	<line x1="585.000" x2="600.000" y1="25.981" y2="0.000" fill="none" stroke="#90d1c2" stroke-width="1.500" />
	<line y2="25.981" fill="none" stroke="#90d1c2" stroke-width="1.500" x1="585.000" x2="615.000" y1="25.981" />
	<line fill="none" stroke="#90d1c2" stroke-width="1.500" x1="585.000" x2="600.000" y1="25.981" y2="51.962" />
	<line fill="none" stroke="#ed8e9c" stroke-width="5.000" x1="555.000" x2="585.000" y1="25.981" y2="25.981" />
	<line y1="51.962" y2="25.981" fill="none" stroke="#ed8e9c" stroke-width="5.000" x1="540.000" x2="555.000" />
	<line x2="540.000" y1="77.942" y2="51.962" fill="none" stroke="#ed8e9c" stroke-width="5.000" x1="555.000" />
	<line x2="570.000" y1="77.942" y2="51.962" fill="none" stroke="#90d1c2" stroke-width="1.500" x1="555.000" />
	<line y2="77.942" fill="none" stroke="#90d1c2" stroke-width="1.500" x1="555.000" x2="585.000" y1="77.942" />
	<line stroke="#ed8e9c" stroke-width="5.000" x1="525.000" x2="555.000" y1="77.942" y2="77.942" fill="none" />
	<line x1="510.000" x2="525.000" y1="51.962" y2="77.942" fill="none" stroke="#ed8e9c" stroke-width="5.000" />
	<line x1="510.000" x2="540.000" y1="51.962" y2="51.962" fill="none" stroke="#90d1c2" stroke-width="1.500" />
	<line y2="51.962" fill="none" stroke="#ed8e9c" stroke-width="5.000" x1="525.000" x2="510.000" y1="25.981" />
	<line x1="525.000" x2="540.000" y1="25.981" y2="0.000" fill="none" stroke="#90d1c2" stroke-width="1.500" />
	<line fill="none" stroke="#90d1c2" stroke-width="1.500" x1="525.000" x2="555.000" y1="25.981" y2="25.981" />
	<line stroke="#90d1c2" stroke-width="1.500" x1="525.000" x2="540.000" y1="25.981" y2="51.962" fill="none" />
	<line y2="0.000" fill="none" stroke="#90d1c2" stroke-width="1.500" x1="525.000" x2="510.000" y1="25.981" />
	<line x1="495.000" x2="525.000" y1="25.981" y2="25.981" fill="none" stroke="#ed8e9c" stroke-width="5.000" />
	<line y1="25.981" y2="0.000" fill="none" stroke="#90d1c2" stroke-width="1.500" x1="495.000" x2="510.000" />
	<line y2="25.981" fill="none" stroke="#ed8e9c" stroke-width="5.000" x1="465.000" x2="495.000" y1="25.981" />
	<line x1="465.000" x2="450.000" y1="25.981" y2="0.000" fill="none" stroke="#90d1c2" stroke-width="1.500" />
	<line x1="435.000" x2="465.000" y1="25.981" y2="25.981" fill="none" stroke="#ed8e9c" stroke-width="5.000" />
	<line fill="none" stroke="#90d1c2" stroke-width="1.500" x1="435.000" x2="450.000" y1="25.981" y2="0.000" />
	<line x1="435.000" x2="420.000" y1="25.981" y2="0.000" fill="none" stroke="#90d1c2" stroke-width="1.500" />
	<line x1="405.000" x2="435.000" y1="25.981" y2="25.981" fill="none" stroke="#ed8e9c" stroke-width="5.000" />
	<line x2="390.000" y1="25.981" y2="0.000" fill="none" stroke="#90d1c2" stroke-width="1.500" x1="405.000" />
	<line x1="375.000" x2="405.000" y1="25.981" y2="25.981" fill="none" stroke="#ed8e9c" stroke-width="5.000" />
	<line x1="375.000" x2="360.000" y1="25.981" y2="0.000" fill="none" stroke="#90d1c2" stroke-width="1.500" />
	<line fill="none" stroke="#ed8e9c" stroke-width="5.000" x1="345.000" x2="375.000" y1="25.981" y2="25.981" />
	<line x1="345.000" x2="360.000" y1="25.981" y2="0.000" fill="none" stroke="#90d1c2" stroke-width="1.500" />
	<line y1="25.981" y2="0.000" fill="none" stroke="#90d1c2" stroke-width="1.500" x1="345.000" x2="330.000" />
	<line stroke-width="5.000" x1="330.000" x2="345.000" y1="51.962" y2="25.981" fill="none" stroke="#ed8e9c" />
	<line y2="51.962" fill="none" stroke="#ed8e9c" stroke-width="5.000" x1="360.000" x2="330.000" y1="51.962" />
	<line y1="51.962" y2="25.981" fill="none" stroke="#90d1c2" stroke-width="1.500" x1="360.000" x2="375.000" />
	<line y2="51.962" fill="none" stroke="#ed8e9c" stroke-width="5.000" x1="390.000" x2="360.000" y1="51.962" />
	<line x1="390.000" x2="405.000" y1="51.962" y2="25.981" fill="none" stroke="#90d1c2" stroke-width="1.500" />
	<line x1="390.000" x2="375.000" y1="51.962" y2="25.981" fill="none" stroke="#90d1c2" stroke-width="1.500" />
	<line fill="none" stroke="#ed8e9c" stroke-width="5.000" x1="420.000" x2="390.000" y1="51.962" y2="51.962" />
	<line x2="420.000" y1="51.962" y2="51.962" fill="none" stroke="#ed8e9c" stroke-width="5.000" x1="450.000" />
	<line y2="25.981" fill="none" stroke="#90d1c2" stroke-width="1.500" x1="450.000" x2="465.000" y1="51.962" />
	<line x1="480.000" x2="450.000" y1="51.962" y2="51.962" fill="none" stroke="#ed8e9c" stroke-width="5.000" />
	<line y2="25.981" fill="none" stroke="#90d1c2" stroke-width="1.500" x1="480.000" x2="495.000" y1="51.962" />
	<line fill="none" stroke="#90d1c2" stroke-width="1.500" x1="480.000" x2="510.000" y1="51.962" y2="51.962" />
	<line y1="51.962" y2="25.981" fill="none" stroke="#90d1c2" stroke-width="1.500" x1="480.000" x2="465.000" />
	<line fill="none" stroke="#ed8e9c" stroke-width="5.000" x1="495.000" x2="480.000" y1="77.942" y2="51.962" />
	<line fill="none" stroke="#90d1c2" stroke-width="1.500" x1="495.000" x2="525.000" y1="77.942" y2="77.942" />
	<line stroke="#ed8e9c" stroke-width="5.000" x1="465.000" x2="495.000" y1="77.942" y2="77.942" fill="none" />
	<line y2="77.942" fill="none" stroke="#ed8e9c" stroke-width="5.000" x1="435.000" x2="465.000" y1="77.942" />
	<line x1="435.000" x2="450.000" y1="77.942" y2="51.962" fill="none" stroke="#90d1c2" stroke-width="1.500" />
	<line stroke="#90d1c2" stroke-width="1.500" x1="435.000" x2="420.000" y1="77.942" y2="51.962" fill="none" />
	<line stroke-width="5.000" x1="405.000" x2="435.000" y1="77.942" y2="77.942" fill="none" stroke="#ed8e9c" />
	<line stroke-width="5.000" x1="375.000" x2="405.000" y1="77.942" y2="77.942" fill="none" stroke="#ed8e9c" />
	<line x1="375.000" x2="360.000" y1="77.942" y2="51.962" fill="none" stroke="#90d1c2" stroke-width="1.500" />
	<line stroke="#ed8e9c" stroke-width="5.000" x1="345.000" x2="375.000" y1="77.942" y2="77.942" fill="none" />
	<line x1="345.000" x2="360.000" y1="77.942" y2="51.962" fill="none" stroke="#90d1c2" stroke-width="1.500" />
	<line fill="none" stroke="#90d1c2" stroke-width="1.500" x1="345.000" x2="330.000" y1="77.942" y2="51.962" />
	<line y2="77.942" fill="none" stroke="#ed8e9c" stroke-width="5.000" x1="315.000" x2="345.000" y1="77.942" />
	<line fill="none" stroke="#90d1c2" stroke-width="1.500" x1="315.000" x2="330.000" y1="77.942" y2="51.962" />
	<line stroke="#ed8e9c" stroke-width="5.000" x1="300.000" x2="315.000" y1="51.962" y2="77.942" fill="none" />
	<line y2="51.962" fill="none" stroke="#90d1c2" stroke-width="1.500" x1="300.000" x2="330.000" y1="51.962" />
	<line y1="25.981" y2="51.962" fill="none" stroke="#ed8e9c" stroke-width="5.000" x1="315.000" x2="300.000" />
	<line x1="315.000" x2="330.000" y1="25.981" y2="0.000" fill="none" stroke="#90d1c2" stroke-width="1.500" />
	<line fill="none" stroke="#90d1c2" stroke-width="1.500" x1="315.000" x2="345.000" y1="25.981" y2="25.981" />
	<circle stroke-width="2.000" cx="375.000" cy="77.942" r="10.000" fill="#ffffff" stroke="#ed8e9c" />
	<text y="81.442" text-anchor="middle" font-family="Super Sans" font-size="8.00" fill="#000000" x="375.000" >
		92
	</text>
	<circle cx="645.000" cy="77.942" r="10.000" fill="#ffffff" stroke="#665782" stroke-width="2.000" />
	<text text-anchor="middle" font-family="Super Sans" font-size="8.00" fill="#000000" x="645.000" y="81.442" >
		65
	</text>
	<circle stroke="#665782" stroke-width="2.000" cx="330.000" cy="0.000" r="10.000" fill="#ffffff" />
	<text x="330.000" y="3.500" text-anchor="middle" font-family="Super Sans" font-size="8.00" fill="#000000" >
		132
	</text>
	<circle cy="25.981" r="10.000" fill="#ffffff" stroke="#ed8e9c" stroke-width="2.000" cx="465.000" />
	<text x="465.000" y="29.481" text-anchor="middle" font-family="Super Sans" font-size="8.00" fill="#000000" >
		77
	</text>
	<circle r="10.000" fill="#ffffff" stroke="#ed8e9c" stroke-width="2.000" cx="450.000" cy="51.962" />
	<text x="450.000" y="55.462" text-anchor="middle" font-family="Super Sans" font-size="8.00" fill="#000000" >
		86
	</text>
	<circle cx="495.000" cy="25.981" r="10.000" fill="#ffffff" stroke="#ed8e9c" stroke-width="2.000" />
	<text x="495.000" y="29.481" text-anchor="middle" font-family="Super Sans" font-size="8.00" fill="#000000" >
		76
	</text>
	<circle cx="495.000" cy="77.942" r="10.000" fill="#ffffff" stroke="#ed8e9c" stroke-width="2.000" />
	<text text-anchor="middle" font-family="Super Sans" font-size="8.00" fill="#000000" x="495.000" y="81.442" >
		88
	</text>
	<circle cy="25.981" r="10.000" fill="#ffffff" stroke="#ed8e9c" stroke-width="2.000" cx="315.000" />
	<text y="29.481" text-anchor="middle" font-family="Super Sans" font-size="8.00" fill="#000000" x="315.000" >
		96
	</text>
	<circle r="10.000" fill="#ffffff" stroke="#665782" stroke-width="2.000" cx="120.000" cy="0.000" />
	<text fill="#000000" x="120.000" y="3.500" text-anchor="middle" font-family="Super Sans" font-size="8.00" >
		109
	</text>
	<circle cy="0.000" r="10.000" fill="#ffffff" stroke="#665782" stroke-width="2.000" cx="360.000" />
	<text x="360.000" y="3.500" text-anchor="middle" font-family="Super Sans" font-size="8.00" fill="#000000" >
		1
	</text>
	<circle cx="510.000" cy="51.962" r="10.000" fill="#ffffff" stroke="#ed8e9c" stroke-width="2.000" />
	<text x="510.000" y="55.462" text-anchor="middle" font-family="Super Sans" font-size="8.00" fill="#000000" >
		74
	</text>
	<circle r="10.000" fill="#ffffff" stroke="#ed8e9c" stroke-width="2.000" cx="390.000" cy="51.962" />
	<text x="390.000" y="55.462" text-anchor="middle" font-family="Super Sans" font-size="8.00" fill="#000000" >
		84
	</text>
	<circle r="10.000" fill="#ffffff" stroke="#665782" stroke-width="2.000" cx="630.000" cy="0.000" />
	<text x="630.000" y="3.500" text-anchor="middle" font-family="Super Sans" font-size="8.00" fill="#000000" >
		30
	</text>
	<circle cx="645.000" cy="25.981" r="10.000" fill="#ffffff" stroke="#665782" stroke-width="2.000" />
	<text font-family="Super Sans" font-size="8.00" fill="#000000" x="645.000" y="29.481" text-anchor="middle" >
		59
	</text>
	<circle r="10.000" fill="#ffffff" stroke="#ed8e9c" stroke-width="2.000" cx="435.000" cy="25.981" />
	<text text-anchor="middle" font-family="Super Sans" font-size="8.00" fill="#000000" x="435.000" y="29.481" >
		78
	</text>
	<circle cy="77.942" r="10.000" fill="#ffffff" stroke="#ed8e9c" stroke-width="2.000" cx="435.000" />
	<text y="81.442" text-anchor="middle" font-family="Super Sans" font-size="8.00" fill="#000000" x="435.000" >
		90
	</text>
	<circle cy="51.962" r="10.000" fill="#ffffff" stroke="#ed8e9c" stroke-width="2.000" cx="480.000" />
	<text text-anchor="middle" font-family="Super Sans" font-size="8.00" fill="#000000" x="480.000" y="55.462" >
		87
	</text>
	<circle stroke-width="2.000" cx="675.000" cy="77.942" r="10.000" fill="#ffffff" stroke="#665782" />
	<text fill="#000000" x="675.000" y="81.442" text-anchor="middle" font-family="Super Sans" font-size="8.00" >
		64
	</text>
	<circle cx="615.000" cy="25.981" r="10.000" fill="#ffffff" stroke="#665782" stroke-width="2.000" />
	<text x="615.000" y="29.481" text-anchor="middle" font-family="Super Sans" font-size="8.00" fill="#000000" >
		60
	</text>
	<circle cx="60.000" cy="0.000" r="10.000" fill="#ffffff" stroke="#665782" stroke-width="2.000" />
	<text fill="#000000" x="60.000" y="3.500" text-anchor="middle" font-family="Super Sans" font-size="8.00" >
		103
	</text>
	<circle cx="555.000" cy="25.981" r="10.000" fill="#ffffff" stroke="#ed8e9c" stroke-width="2.000" />
	<text font-family="Super Sans" font-size="8.00" fill="#000000" x="555.000" y="29.481" text-anchor="middle" >
		70
	</text>
	<circle cx="405.000" cy="77.942" r="10.000" fill="#ffffff" stroke="#ed8e9c" stroke-width="2.000" />
	<text y="81.442" text-anchor="middle" font-family="Super Sans" font-size="8.00" fill="#000000" x="405.000" >
		91
	</text>
	<circle stroke="#665782" stroke-width="2.000" cx="390.000" cy="0.000" r="10.000" fill="#ffffff" />
	<text font-size="8.00" fill="#000000" x="390.000" y="3.500" text-anchor="middle" font-family="Super Sans" >
		10
	</text>
	<circle cx="660.000" cy="51.962" r="10.000" fill="#ffffff" stroke="#665782" stroke-width="2.000" />
	<text text-anchor="middle" font-family="Super Sans" font-size="8.00" fill="#000000" x="660.000" y="55.462" >
		63
	</text>
	<circle r="10.000" fill="#ffffff" stroke="#ed8e9c" stroke-width="2.000" cx="585.000" cy="77.942" />
	<text font-size="8.00" fill="#000000" x="585.000" y="81.442" text-anchor="middle" font-family="Super Sans" >
		67
	</text>
	<circle stroke="#ed8e9c" stroke-width="2.000" cx="570.000" cy="51.962" r="10.000" fill="#ffffff" />
	<text x="570.000" y="55.462" text-anchor="middle" font-family="Super Sans" font-size="8.00" fill="#000000" >
		68
	</text>
	<circle stroke="#ed8e9c" stroke-width="2.000" cx="525.000" cy="77.942" r="10.000" fill="#ffffff" />
	<text font-size="8.00" fill="#000000" x="525.000" y="81.442" text-anchor="middle" font-family="Super Sans" >
		73
	</text>
	<circle cx="405.000" cy="25.981" r="10.000" fill="#ffffff" stroke="#ed8e9c" stroke-width="2.000" />
	<text y="29.481" text-anchor="middle" font-family="Super Sans" font-size="8.00" fill="#000000" x="405.000" >
		79
	</text>
	<circle cx="300.000" cy="51.962" r="10.000" fill="#ffffff" stroke="#ed8e9c" stroke-width="2.000" />
	<text y="55.462" text-anchor="middle" font-family="Super Sans" font-size="8.00" fill="#000000" x="300.000" >
		95
	</text>
	<circle cx="570.000" cy="0.000" r="10.000" fill="#ffffff" stroke="#665782" stroke-width="2.000" />
	<text x="570.000" y="3.500" text-anchor="middle" font-family="Super Sans" font-size="8.00" fill="#000000" >
		24
	</text>
	<circle cx="90.000" cy="0.000" r="10.000" fill="#ffffff" stroke="#665782" stroke-width="2.000" />
	<text fill="#000000" x="90.000" y="3.500" text-anchor="middle" font-family="Super Sans" font-size="8.00" >
		108
	</text>
	<circle cx="180.000" cy="0.000" r="10.000" fill="#ffffff" stroke="#665782" stroke-width="2.000" />
	<text text-anchor="middle" font-family="Super Sans" font-size="8.00" fill="#000000" x="180.000" y="3.500" >
		115
	</text>
	<circle cx="450.000" cy="0.000" r="10.000" fill="#ffffff" stroke="#665782" stroke-width="2.000" />
	<text font-size="8.00" fill="#000000" x="450.000" y="3.500" text-anchor="middle" font-family="Super Sans" >
		12
	</text>
	<circle stroke-width="2.000" cx="510.000" cy="0.000" r="10.000" fill="#ffffff" stroke="#665782" />
	<text fill="#000000" x="510.000" y="3.500" text-anchor="middle" font-family="Super Sans" font-size="8.00" >
		22
	</text>
	<circle cx="525.000" cy="25.981" r="10.000" fill="#ffffff" stroke="#ed8e9c" stroke-width="2.000" />
	<text font-family="Super Sans" font-size="8.00" fill="#000000" x="525.000" y="29.481" text-anchor="middle" >
		75
	</text>
	<circle cx="330.000" cy="51.962" r="10.000" fill="#ffffff" stroke="#ed8e9c" stroke-width="2.000" />
	<text text-anchor="middle" font-family="Super Sans" font-size="8.00" fill="#000000" x="330.000" y="55.462" >
		82
	</text>
	<circle cx="540.000" cy="0.000" r="10.000" fill="#ffffff" stroke="#665782" stroke-width="2.000" />
	<text y="3.500" text-anchor="middle" font-family="Super Sans" font-size="8.00" fill="#000000" x="540.000" >
		23
	</text>
	<circle stroke-width="2.000" cx="465.000" cy="77.942" r="10.000" fill="#ffffff" stroke="#ed8e9c" />
	<text y="81.442" text-anchor="middle" font-family="Super Sans" font-size="8.00" fill="#000000" x="465.000" >
		89
	</text>
	<circle stroke-width="2.000" cx="345.000" cy="77.942" r="10.000" fill="#ffffff" stroke="#ed8e9c" />
	<text x="345.000" y="81.442" text-anchor="middle" font-family="Super Sans" font-size="8.00" fill="#000000" >
		93
	</text>
	<circle stroke="#665782" stroke-width="2.000" cx="210.000" cy="0.000" r="10.000" fill="#ffffff" />
	<text font-family="Super Sans" font-size="8.00" fill="#000000" x="210.000" y="3.500" text-anchor="middle" >
		120
	</text>
	<circle cx="300.000" cy="0.000" r="10.000" fill="#ffffff" stroke="#665782" stroke-width="2.000" />
	<text font-family="Super Sans" font-size="8.00" fill="#000000" x="300.000" y="3.500" text-anchor="middle" >
		127
	</text>
	<circle cx="240.000" cy="0.000" r="10.000" fill="#ffffff" stroke="#665782" stroke-width="2.000" />
	<text x="240.000" y="3.500" text-anchor="middle" font-family="Super Sans" font-size="8.00" fill="#000000" >
		121
	</text>
	<circle stroke="#ed8e9c" stroke-width="2.000" cx="345.000" cy="25.981" r="10.000" fill="#ffffff" />
	<text text-anchor="middle" font-family="Super Sans" font-size="8.00" fill="#000000" x="345.000" y="29.481" >
		81
	</text>
	<circle cx="555.000" cy="77.942" r="10.000" fill="#ffffff" stroke="#ed8e9c" stroke-width="2.000" />
	<text fill="#000000" x="555.000" y="81.442" text-anchor="middle" font-family="Super Sans" font-size="8.00" >
		72
	</text>
	<circle cx="375.000" cy="25.981" r="10.000" fill="#ffffff" stroke="#ed8e9c" stroke-width="2.000" />
	<text text-anchor="middle" font-family="Super Sans" font-size="8.00" fill="#000000" x="375.000" y="29.481" >
		80
	</text>
	<circle cx="420.000" cy="51.962" r="10.000" fill="#ffffff" stroke="#ed8e9c" stroke-width="2.000" />
	<text font-size="8.00" fill="#000000" x="420.000" y="55.462" text-anchor="middle" font-family="Super Sans" >
		85
	</text>
	<circle cx="600.000" cy="51.962" r="10.000" fill="#ffffff" stroke="#665782" stroke-width="2.000" />
	<text x="600.000" y="55.462" text-anchor="middle" font-family="Super Sans" font-size="8.00" fill="#000000" >
		61
	</text>
	<circle stroke-width="2.000" cx="615.000" cy="77.942" r="10.000" fill="#ffffff" stroke="#665782" />
	<text x="615.000" y="81.442" text-anchor="middle" font-family="Super Sans" font-size="8.00" fill="#000000" >
		66
	</text>
	<circle cx="420.000" cy="0.000" r="10.000" fill="#ffffff" stroke="#665782" stroke-width="2.000" />
	<text x="420.000" y="3.500" text-anchor="middle" font-family="Super Sans" font-size="8.00" fill="#000000" >
		11
	</text>
	<circle cx="270.000" cy="0.000" r="10.000" fill="#ffffff" stroke="#665782" stroke-width="2.000" />
	<text font-size="8.00" fill="#000000" x="270.000" y="3.500" text-anchor="middle" font-family="Super Sans" >
		126
	</text>
	<circle cx="150.000" cy="0.000" r="10.000" fill="#ffffff" stroke="#665782" stroke-width="2.000" />
	<text font-family="Super Sans" font-size="8.00" fill="#000000" x="150.000" y="3.500" text-anchor="middle" >
		114
	</text>
	<circle stroke="#665782" stroke-width="2.000" cx="30.000" cy="0.000" r="10.000" fill="#ffffff" />
	<text font-size="8.00" fill="#000000" x="30.000" y="3.500" text-anchor="middle" font-family="Super Sans" >
		102
	</text>
	<circle cx="360.000" cy="51.962" r="10.000" fill="#ffffff" stroke="#ed8e9c" stroke-width="2.000" />
	<text y="55.462" text-anchor="middle" font-family="Super Sans" font-size="8.00" fill="#000000" x="360.000" >
		83
	</text>
	<circle cx="315.000" cy="77.942" r="10.000" fill="#ffffff" stroke="#ed8e9c" stroke-width="2.000" />
	<text x="315.000" y="81.442" text-anchor="middle" font-family="Super Sans" font-size="8.00" fill="#000000" >
		94
	</text>
	<circle r="10.000" fill="#ffffff" stroke="#665782" stroke-width="2.000" cx="630.000" cy="51.962" />
	<text font-size="8.00" fill="#000000" x="630.000" y="55.462" text-anchor="middle" font-family="Super Sans" >
		62
	</text>
	<circle r="10.000" fill="#ffffff" stroke="#665782" stroke-width="2.000" cx="480.000" cy="0.000" />
	<text x="480.000" y="3.500" text-anchor="middle" font-family="Super Sans" font-size="8.00" fill="#000000" >
		13
	</text>
	<circle cx="600.000" cy="0.000" r="10.000" fill="#ffffff" stroke="#665782" stroke-width="2.000" />
	<text font-size="8.00" fill="#000000" x="600.000" y="3.500" text-anchor="middle" font-family="Super Sans" >
		25
	</text>
	<circle stroke-width="2.000" cx="0.000" cy="0.000" r="10.000" fill="#ffffff" stroke="#665782" />
	<text font-size="8.00" fill="#000000" x="0.000" y="3.500" text-anchor="middle" font-family="Super Sans" >
		97
	</text>
	<circle stroke="#ed8e9c" stroke-width="2.000" cx="585.000" cy="25.981" r="10.000" fill="#ffffff" />
	<text font-size="8.00" fill="#000000" x="585.000" y="29.481" text-anchor="middle" font-family="Super Sans" >
		69
	</text>
	<circle stroke-width="2.000" cx="540.000" cy="51.962" r="10.000" fill="#ffffff" stroke="#ed8e9c" />
	<text x="540.000" y="55.462" text-anchor="middle" font-family="Super Sans" font-size="8.00" fill="#000000" >
		71
	</text>
</svg>
